<svg xmlns="http://www.w3.org/2000/svg" xmlns:xlink="http://www.w3.org/1999/xlink" fill="none" version="1.1" width="8" height="16" viewBox="0 0 8 16"><defs><clipPath id="master_svg0_27_07290"><rect x="0" y="0" width="8" height="16" rx="0"/></clipPath></defs><g clip-path="url(#master_svg0_27_07290)"><g transform="matrix(1,0,0,-1,0,30.6875)"><g><path d="M7.71875,23.0625Q8,22.75,8,22.34375Q8,21.9375,7.71875,21.625L1.71875,15.625Q1.40625,15.34375,1,15.34375Q0.59375,15.34375,0.28125,15.625Q0,15.9375,0,16.34375Q0,16.75,0.28125,17.0625L5.59375,22.34375L0.28125,27.62495Q0,27.93755,0,28.34375Q0,28.74995,0.28125,29.06255Q0.59375,29.34375,1,29.34375Q1.40625,29.34375,1.71875,29.06255L7.71875,23.0625Z" fill="#4B5563" fill-opacity="1"/></g></g></g></svg>